<svg width="800" height="600" xmlns="http://www.w3.org/2000/svg" viewBox="0 0 800 600">
  <defs>
    <linearGradient id="bgGrad2" x1="100%" y1="0%" x2="0%" y2="100%">
      <stop offset="0%" style="stop-color:#0A0F2C;stop-opacity:1" />
      <stop offset="100%" style="stop-color:#1C2A5E;stop-opacity:1" />
    </linearGradient>
  </defs>
  <rect width="800" height="600" fill="url(#bgGrad2)"/>
  
  <!-- Dashboard UI Placeholder -->
  <rect x="80" y="100" width="200" height="400" rx="8" fill="#111A45" stroke="rgba(201,168,76,0.2)" stroke-width="1"/>
  <rect x="300" y="100" width="420" height="400" rx="8" fill="#111A45" stroke="rgba(201,168,76,0.2)" stroke-width="1"/>
  
  <!-- Sidebar items -->
  <rect x="100" y="130" width="120" height="15" rx="4" fill="#C9A84C" opacity="0.8"/>
  <rect x="100" y="170" width="160" height="10" rx="4" fill="#8A8FA8" opacity="0.4"/>
  <rect x="100" y="200" width="140" height="10" rx="4" fill="#8A8FA8" opacity="0.4"/>
  <rect x="100" y="230" width="150" height="10" rx="4" fill="#8A8FA8" opacity="0.4"/>
  
  <!-- Main content items -->
  <rect x="330" y="130" width="200" height="20" rx="4" fill="#C9A84C" opacity="0.8"/>
  
  <rect x="330" y="180" width="180" height="120" rx="4" fill="rgba(201,168,76,0.1)"/>
  <rect x="525" y="180" width="165" height="120" rx="4" fill="rgba(201,168,76,0.1)"/>
  
  <!-- Bar charts -->
  <rect x="350" y="250" width="20" height="30" rx="2" fill="#C9A84C"/>
  <rect x="380" y="230" width="20" height="50" rx="2" fill="#C9A84C" opacity="0.8"/>
  <rect x="410" y="210" width="20" height="70" rx="2" fill="#E2C07A"/>
  <rect x="440" y="220" width="20" height="60" rx="2" fill="#C9A84C"/>
  
  <rect x="330" y="320" width="360" height="150" rx="4" fill="rgba(201,168,76,0.05)"/>
  <path d="M 330 400 L 400 380 L 500 420 L 600 350 L 690 330" fill="none" stroke="#C9A84C" stroke-width="3" opacity="0.7"/>
</svg>